{"title":"J.Edgar.2011.BRRip.XviD.Ac3.Feel-Free","uid":7026740,"size":1483484805,"categoryP":"video","categoryS":"movies","magnet":"?xt=urn:btih:ef4927d4235dd6bac3ee8dee85df241b78a30f54&amp;dn=J.Edgar.2011.BRRip.XviD.Ac3.Feel-Free&amp;tr=udp%3A%2F%2Ftracker.openbittorrent.com%3A80&amp;tr=udp%3A%2F%2Fopen.demonii.com%3A1337&amp;tr=udp%3A%2F%2Ftracker.coppersurfer.tk%3A6969&amp;tr=udp%3A%2F%2Fexodus.desync.com%3A6969","seeders":1,"leechers":0,"uploader":null,"files":8,"time":1329045268,"description":"Genre:Biography | Drama\nLanguage:English\nIMDb:http://www.imdb.com/title/tt1616195/\nSource:1080p.BluRay.x264-SPARKS Thanks!\n\nFormat : AVI\nFormat/Info : Audio Video Interleave\nFile size : 1.38 GiB\nDuration : 2h 16mn\nOverall bit rate : 1 444 Kbps\n\nVideo\nID : 0\nFormat : MPEG-4 Visual\nFormat profile : Advanced Simple@L5\nFormat settings, BVOP : 1\nFormat settings, QPel : No\nFormat settings, GMC : No warppoints\nFormat settings, Matrix : Default (H.263)\nCodec ID : XVID\nCodec ID/Hint : XviD\nDuration : 2h 16mn\nBit rate : 987 Kbps\nWidth : 640 pixels\nHeight : 264 pixels\nDisplay aspect ratio : 2.40:1\nFrame rate : 23.976 fps\nColor space : YUV\nChroma subsampling : 4:2:0\nBit depth : 8 bits\nScan type : Progressive\nCompression mode : Lossy\nBits/(Pixel*Frame) : 0.244\nStream size : 966 MiB (68%)\nWriting library : XviD 1.2.1 (UTC 2008-12-04)\n\nAudio\nID : 1\nFormat : AC-3\nFormat/Info : Audio Coding 3\nMode extension : CM (complete main)\nCodec ID : 2000\nDuration : 2h 16mn\nBit rate mode : Constant\nBit rate : 448 Kbps\nChannel(s) : 6 channels\nChannel positions : Front: L C R, Side: L R, LFE\nSampling rate : 48.0 KHz\nBit depth : 16 bits\nCompression mode : Lossy\nStream size : 439 MiB (31%)\nAlignment : Aligned on interleaves\nInterleave, duration : 42 ms (1.00 video frame)\nInterleave, preload duration : 512 ms\n\n\nPlot:\nAs the face of law enforcement in America for almost 50 years, J. Edgar Hoover was feared and admired, reviled and revered. But behind closed doors, he held secrets that would have destroyed his image, his career and his life","torrent":{"xt":"urn:btih:ef4927d4235dd6bac3ee8dee85df241b78a30f54","amp;dn":"J.Edgar.2011.BRRip.XviD.Ac3.Feel-Free","amp;tr":["udp%3A%2F%2Ftracker.openbittorrent.com%3A80","udp%3A%2F%2Fopen.demonii.com%3A1337","udp%3A%2F%2Ftracker.coppersurfer.tk%3A6969","udp%3A%2F%2Fexodus.desync.com%3A6969"],"infoHash":"ef4927d4235dd6bac3ee8dee85df241b78a30f54","infoHashBuffer":{"type":"Buffer","data":[239,73,39,212,35,93,214,186,195,238,141,238,133,223,36,27,120,163,15,84]},"announce":[],"urlList":[]}}